<svg xmlns="http://www.w3.org/2000/svg" viewBox="0 0 96 96" fill="none" aria-hidden="true">
  <defs>
    <linearGradient id="lg" x1="12" y1="8" x2="84" y2="88" gradientUnits="userSpaceOnUse">
      <stop stop-color="#FF7A1A"/>
      <stop offset="1" stop-color="#F4B942"/>
    </linearGradient>
  </defs>
  <circle cx="48" cy="48" r="44" fill="url(#lg)"/>
  <circle cx="48" cy="48" r="36" fill="#FFF8F1"/>
  <path d="M30 54c4-16 18-26 34-22 10 2.5 18 11 19 21 1 9-2.5 18-10 23-9 6-21 7-31 2-12-5.5-17-15.5-12-24z" fill="#1A1F24"/>
  <path d="M38 48c5-7 14-11 22-8" stroke="#FF7A1A" stroke-width="3.5" stroke-linecap="round"/>
  <circle cx="62" cy="42" r="3.5" fill="#FF7A1A"/>
  <path d="M28 68c8 6 18 9 28 8 10-1 19-5 26-12" stroke="#F4B942" stroke-width="3" stroke-linecap="round" opacity=".85"/>
</svg>
